<?xml version='1.0' encoding='UTF-8'?>
<svg xmlns="http://www.w3.org/2000/svg" font-family="ConsolasFallback,Consolas,monospace" width="1200px" height="850px" font-size="16px">
<style>
@font-face {
src: local('Consolas'), local('Consolas Bold');
font-family: 'ConsolasFallback';
font-display: swap;
-webkit-size-adjust: 109%;
size-adjust: 109%;
}
.key {fill: #8250df;}
.value {fill: #0550ae;}
.addColor {fill: #1a7f37;}
.delColor {fill: #cf222e;}
.cc {fill: #57606a;}
text, tspan {white-space: pre;}
</style>
<rect width="1200px" height="850px" fill="#f6f8fa"/>

<!-- ═══════════════════ PC BESPOKE EMBLEM CARD ═══════════════════ -->
<defs>
  <linearGradient id="pcGradL" x1="0%" y1="0%" x2="100%" y2="100%">
    <stop offset="0%" stop-color="#0969da"/>
    <stop offset="50%" stop-color="#0550ae"/>
    <stop offset="100%" stop-color="#8250df"/>
  </linearGradient>
  <linearGradient id="pcGradLH" x1="0%" y1="0%" x2="100%" y2="0%">
    <stop offset="0%" stop-color="#0969da"/>
    <stop offset="50%" stop-color="#0550ae"/>
    <stop offset="100%" stop-color="#8250df"/>
  </linearGradient>
  <filter id="glowFxL" x="-30%" y="-30%" width="160%" height="160%">
    <feGaussianBlur in="SourceGraphic" stdDeviation="14" result="blur"/>
    <feMerge>
      <feMergeNode in="blur"/>
      <feMergeNode in="SourceGraphic"/>
    </feMerge>
  </filter>
  <filter id="subtleGlowL" x="-20%" y="-20%" width="140%" height="140%">
    <feGaussianBlur in="SourceGraphic" stdDeviation="5" result="blur"/>
    <feMerge>
      <feMergeNode in="blur"/>
      <feMergeNode in="SourceGraphic"/>
    </feMerge>
  </filter>
</defs>

<!-- Card shadow -->
<rect x="26" y="42" width="462" height="784" rx="20" ry="20" fill="#afb8c1" opacity="0.25"/>

<!-- Main card body -->
<rect x="20" y="36" width="462" height="784" rx="20" ry="20" fill="#ffffff" stroke="#d0d7de" stroke-width="1.5"/>

<!-- Terminal header bar -->
<rect x="20" y="36" width="462" height="54" rx="20" ry="20" fill="#f6f8fa"/>
<rect x="20" y="66" width="462" height="24" fill="#f6f8fa"/>

<!-- Traffic light dots -->
<circle cx="54" cy="63" r="7" fill="#f85149"/>
<circle cx="54" cy="63" r="7" fill="none" stroke="#c0392b" stroke-width="0.5" opacity="0.5"/>
<circle cx="80" cy="63" r="7" fill="#d29922"/>
<circle cx="80" cy="63" r="7" fill="none" stroke="#b7771d" stroke-width="0.5" opacity="0.5"/>
<circle cx="106" cy="63" r="7" fill="#3fb950"/>
<circle cx="106" cy="63" r="7" fill="none" stroke="#2ea043" stroke-width="0.5" opacity="0.5"/>

<!-- Header title -->
<text x="251" y="68" text-anchor="middle" font-family="ConsolasFallback,Consolas,monospace" font-size="13" fill="#57606a">~/pcgod007 — bash</text>
<text x="448" y="68" text-anchor="end" font-family="ConsolasFallback,Consolas,monospace" font-size="13" fill="#1a7f37" opacity="0.8">❯</text>

<!-- Header divider -->
<line x1="20" y1="90" x2="482" y2="90" stroke="#d0d7de" stroke-width="1"/>

<!-- Background tech grid -->
<g stroke="#eaeef2" stroke-width="1" opacity="0.8">
  <line x1="20" y1="180" x2="482" y2="180"/>
  <line x1="20" y1="270" x2="482" y2="270"/>
  <line x1="20" y1="360" x2="482" y2="360"/>
  <line x1="20" y1="450" x2="482" y2="450"/>
  <line x1="20" y1="540" x2="482" y2="540"/>
  <line x1="20" y1="630" x2="482" y2="630"/>
  <line x1="110" y1="90" x2="110" y2="820"/>
  <line x1="251" y1="90" x2="251" y2="820"/>
  <line x1="392" y1="90" x2="392" y2="820"/>
</g>

<!-- Telemetry header line -->
<text x="45" y="118" font-family="ConsolasFallback,Consolas,monospace" font-size="11" fill="#0969da" letter-spacing="2">SYS.INIT // CORE_007</text>
<text x="457" y="118" text-anchor="end" font-family="ConsolasFallback,Consolas,monospace" font-size="11" fill="#57606a" letter-spacing="1">ARCH: 64-BIT</text>
<line x1="45" y1="130" x2="457" y2="130" stroke="#d0d7de" stroke-width="1" stroke-dasharray="3,4" opacity="0.7"/>

<!-- Outer Circular HUD Reticle -->
<circle cx="251" cy="350" r="162" fill="none" stroke="#d0d7de" stroke-width="1" stroke-dasharray="4,8" opacity="0.6"/>
<circle cx="251" cy="350" r="146" fill="none" stroke="#eaeef2" stroke-width="1.2" opacity="0.8"/>

<!-- Reticle Cardinal Ticks -->
<line x1="251" y1="180" x2="251" y2="192" stroke="url(#pcGradL)" stroke-width="2" stroke-linecap="round"/>
<line x1="251" y1="508" x2="251" y2="520" stroke="url(#pcGradL)" stroke-width="2" stroke-linecap="round"/>
<line x1="81" y1="350" x2="93" y2="350" stroke="url(#pcGradL)" stroke-width="2" stroke-linecap="round"/>
<line x1="409" y1="350" x2="421" y2="350" stroke="url(#pcGradL)" stroke-width="2" stroke-linecap="round"/>

<!-- Precision Reticle Corner Brackets -->
<polyline points="105,215 85,215 85,235" fill="none" stroke="url(#pcGradL)" stroke-width="1.8" opacity="0.8"/>
<polyline points="397,215 417,215 417,235" fill="none" stroke="url(#pcGradL)" stroke-width="1.8" opacity="0.8"/>
<polyline points="105,485 85,485 85,465" fill="none" stroke="url(#pcGradL)" stroke-width="1.8" opacity="0.8"/>
<polyline points="397,485 417,485 417,465" fill="none" stroke="url(#pcGradL)" stroke-width="1.8" opacity="0.8"/>

<!-- Reticle Coordinates -->
<text x="90" y="210" font-size="9" fill="#57606a" opacity="0.7">00° N</text>
<text x="412" y="210" text-anchor="end" font-size="9" fill="#57606a" opacity="0.7">HEX.007</text>
<text x="90" y="498" font-size="9" fill="#57606a" opacity="0.7">270° W</text>
<text x="412" y="498" text-anchor="end" font-size="9" fill="#57606a" opacity="0.7">90° E</text>

<!-- Deep Ambient Halo behind Emblem -->
<circle cx="251" cy="350" r="140" fill="#0969da" opacity="0.04" filter="url(#glowFxL)"/>
<circle cx="251" cy="350" r="95" fill="#8250df" opacity="0.05" filter="url(#glowFxL)"/>

<!-- Octagonal Cyber Shield -->
<path d="M 161 230 L 341 230 L 371 260 L 371 440 L 341 470 L 161 470 L 131 440 L 131 260 Z" fill="#f6f8fa" stroke="url(#pcGradL)" stroke-width="1.5" opacity="0.95"/>
<path d="M 166 237 L 336 237 L 364 265 L 364 435 L 336 463 L 166 463 L 138 435 L 138 265 Z" fill="none" stroke="#eaeef2" stroke-width="1" stroke-dasharray="6,4" opacity="0.7"/>

<!-- Circuit Nodes on Shield -->
<path d="M 131 350 L 112 350 L 98 364" fill="none" stroke="url(#pcGradL)" stroke-width="1.5" stroke-linecap="round"/>
<circle cx="98" cy="364" r="2.5" fill="#0969da"/>
<path d="M 371 350 L 390 350 L 404 336" fill="none" stroke="url(#pcGradL)" stroke-width="1.5" stroke-linecap="round"/>
<circle cx="404" cy="336" r="2.5" fill="#8250df"/>

<!-- ═══ THE HANDCRAFTED PC MONOGRAM (Layered Vector Craft) ═══ -->
<!-- Monogram Glow Layer 1 (Deep Atmospheric Glow) -->
<path d="M 148 275 L 163 260 L 224 260 C 246 260, 254 274, 254 295 L 254 315 C 254 336, 246 350, 224 350 L 184 350 L 184 425 L 169 440 L 163 440 L 148 425 Z M 184 294 L 216 294 C 226 294, 228 300, 228 305 C 228 310, 226 316, 216 316 L 184 316 Z" fill="url(#pcGradL)" filter="url(#glowFxL)" opacity="0.15" fill-rule="evenodd"/>
<path d="M 352 292 L 352 270 L 342 260 L 282 260 C 272 260, 266 270, 266 286 L 266 414 C 266 430, 272 440, 282 440 L 342 440 L 352 430 L 352 408 L 304 408 C 300 408, 298 404, 298 396 L 298 304 C 298 296, 300 292, 304 292 Z" fill="url(#pcGradL)" filter="url(#glowFxL)" opacity="0.15"/>

<!-- Monogram Glow Layer 2 (Tight Edge Glow) -->
<path d="M 148 275 L 163 260 L 224 260 C 246 260, 254 274, 254 295 L 254 315 C 254 336, 246 350, 224 350 L 184 350 L 184 425 L 169 440 L 163 440 L 148 425 Z M 184 294 L 216 294 C 226 294, 228 300, 228 305 C 228 310, 226 316, 216 316 L 184 316 Z" fill="url(#pcGradL)" filter="url(#subtleGlowL)" opacity="0.25" fill-rule="evenodd"/>
<path d="M 352 292 L 352 270 L 342 260 L 282 260 C 272 260, 266 270, 266 286 L 266 414 C 266 430, 272 440, 282 440 L 342 440 L 352 430 L 352 408 L 304 408 C 300 408, 298 404, 298 396 L 298 304 C 298 296, 300 292, 304 292 Z" fill="url(#pcGradL)" filter="url(#subtleGlowL)" opacity="0.25"/>

<!-- Monogram Crisp Vector Glyphs -->
<path d="M 148 275 L 163 260 L 224 260 C 246 260, 254 274, 254 295 L 254 315 C 254 336, 246 350, 224 350 L 184 350 L 184 425 L 169 440 L 163 440 L 148 425 Z M 184 294 L 216 294 C 226 294, 228 300, 228 305 C 228 310, 226 316, 216 316 L 184 316 Z" fill="url(#pcGradL)" fill-rule="evenodd"/>
<path d="M 352 292 L 352 270 L 342 260 L 282 260 C 272 260, 266 270, 266 286 L 266 414 C 266 430, 272 440, 282 440 L 342 440 L 352 430 L 352 408 L 304 408 C 300 408, 298 404, 298 396 L 298 304 C 298 296, 300 292, 304 292 Z" fill="url(#pcGradL)"/>

<!-- Specular Bevel Highlights (Laser-Milled Finish) -->
<line x1="163" y1="261" x2="224" y2="261" stroke="#ffffff" stroke-width="1.5" stroke-linecap="round" opacity="0.75"/>
<path d="M 224 261 C 244 261, 253 274, 253 295" fill="none" stroke="#ffffff" stroke-width="1.5" stroke-linecap="round" opacity="0.6"/>
<line x1="149" y1="275" x2="149" y2="425" stroke="#0969da" stroke-width="1.5" stroke-linecap="round" opacity="0.8"/>
<line x1="184" y1="295" x2="216" y2="295" stroke="#ffffff" stroke-width="1" opacity="0.5"/>

<!-- C Specular Highlights -->
<line x1="282" y1="261" x2="342" y2="261" stroke="#ffffff" stroke-width="1.5" stroke-linecap="round" opacity="0.75"/>
<line x1="342" y1="261" x2="352" y2="271" stroke="#ffffff" stroke-width="1.5" stroke-linecap="round" opacity="0.75"/>
<line x1="267" y1="286" x2="267" y2="414" stroke="#0969da" stroke-width="1.2" stroke-linecap="round" opacity="0.7"/>
<line x1="304" y1="409" x2="352" y2="409" stroke="url(#pcGradL)" stroke-width="1.2" stroke-linecap="round" opacity="0.8"/>

<!-- ═══ EMBLEM BRANDING & TELEMETRY ═══ -->
<!-- Glassmorphic Brand Badge -->
<rect x="146" y="496" width="210" height="36" rx="18" fill="#ffffff" stroke="url(#pcGradL)" stroke-width="1.3"/>
<circle cx="170" cy="514" r="7" fill="none" stroke="#1a7f37" stroke-width="1" opacity="0.5"/>
<circle cx="170" cy="514" r="4" fill="#1a7f37">
  <animate attributeName="opacity" values="1;0.4;1" dur="2s" repeatCount="indefinite"/>
</circle>
<text x="254" y="520" text-anchor="middle" font-family="ConsolasFallback,Consolas,monospace" font-size="14" font-weight="bold" fill="#24292f" letter-spacing="4">PCGOD007</text>

<!-- Subtitle / Identity -->
<text x="251" y="554" text-anchor="middle" font-family="ConsolasFallback,Consolas,monospace" font-size="11" fill="#57606a" letter-spacing="2.5">DEV // ARCHITECT</text>

<!-- Telemetry Gauge Module -->
<line x1="45" y1="576" x2="457" y2="576" stroke="#d0d7de" stroke-width="1" opacity="0.8"/>

<!-- Gauges -->
<text x="48" y="600" font-size="10" fill="#57606a">PWR</text>
<rect x="78" y="592" width="70" height="8" rx="2" fill="#eaeef2"/>
<rect x="78" y="592" width="60" height="8" rx="2" fill="url(#pcGradL)"/>

<text x="180" y="600" font-size="10" fill="#57606a">SYS</text>
<rect x="210" y="592" width="70" height="8" rx="2" fill="#eaeef2"/>
<rect x="210" y="592" width="66" height="8" rx="2" fill="url(#pcGradL)"/>

<text x="312" y="600" font-size="10" fill="#57606a">NET</text>
<rect x="342" y="592" width="70" height="8" rx="2" fill="#eaeef2"/>
<rect x="342" y="592" width="54" height="8" rx="2" fill="url(#pcGradL)"/>

<!-- Spec row -->
<text x="48" y="626" font-size="10" fill="#0969da" opacity="0.9">KERNEL: 6.8.0-DEV</text>
<text x="251" y="626" text-anchor="middle" font-size="10" fill="#8250df" opacity="0.9">NODE: IN-044</text>
<text x="454" y="626" text-anchor="end" font-size="10" fill="#1a7f37" opacity="0.9">STATUS: VERIFIED</text>
<line x1="45" y1="642" x2="457" y2="642" stroke="#d0d7de" stroke-width="1" opacity="0.8"/>

<!-- Interactive Command Console Box -->
<rect x="42" y="662" width="418" height="82" rx="8" fill="#f6f8fa" stroke="#d0d7de" stroke-width="1"/>
<text x="56" y="686" font-size="11" fill="#57606a">$ <tspan fill="#1a7f37">pcgod007</tspan> --status <tspan fill="#0969da">--verified</tspan></text>
<text x="56" y="707" font-size="11" fill="#1a7f37">[✓] System active. Welcome, Pranav.</text>
<text x="56" y="728" font-size="11" fill="#57606a">$ <tspan fill="#0969da">git</tspan> status <tspan fill="#57606a"># branch main (synced)</tspan></text>
<rect x="350" y="718" width="7" height="13" fill="#0969da">
  <animate attributeName="opacity" values="1;0;1" dur="1s" repeatCount="indefinite"/>
</rect>

<!-- Card Corner Tech Accents -->
<polyline points="50,805 35,805 35,790" fill="none" stroke="url(#pcGradL)" stroke-width="2" stroke-linecap="round" opacity="0.8"/>
<polyline points="452,805 467,805 467,790" fill="none" stroke="url(#pcGradL)" stroke-width="2" stroke-linecap="round" opacity="0.8"/>

<!-- Animated Sweep Scan Line -->
<rect x="20" y="90" width="462" height="2" fill="url(#pcGradLH)" opacity="0.08">
  <animate attributeName="y" values="90;818;90" dur="9s" repeatCount="indefinite"/>
  <animate attributeName="opacity" values="0.08;0.01;0.08" dur="9s" repeatCount="indefinite"/>
</rect>
<!-- ═══════════════════════════════════════════════════════════════ -->

<circle cx="948" cy="74" r="8" fill="none" stroke="#22c55e" stroke-width="2" opacity="0.6"/>
<circle cx="948" cy="74" r="4" fill="#22c55e">
  <animate attributeName="opacity" values="1;0.3;1" dur="3s" repeatCount="indefinite"/>
</circle>

<text x="550" y="50" fill="#24292f">
<tspan x="550" y="50">github@pcgod007</tspan> -—————————————————————————————————————————-—-
<tspan x="550" y="80" class="cc">. </tspan><tspan class="key">Status</tspan>:<tspan class="cc"> ............................. </tspan><tspan class="value">    Running (stable)</tspan>
<tspan x="550" y="110" class="cc">. </tspan><tspan class="key">OS</tspan>:<tspan class="cc"> ............................................. </tspan><tspan class="value">Pranav C</tspan>
<tspan x="550" y="140" class="cc">. </tspan><tspan class="key">Uptime</tspan>:<tspan class="cc" id="age_data_dots"> ...................... </tspan><tspan class="value" id="age_data">23 years, 2 months, 14 days</tspan>
<tspan x="550" y="170" class="cc">. </tspan><tspan class="key">Host</tspan>:<tspan class="cc"> ................................ </tspan><tspan class="value">Chennai, IN (local)</tspan>
<tspan x="550" y="200" class="cc">. </tspan><tspan class="key">Kernel</tspan>:<tspan class="cc"> ................................... </tspan><tspan class="value">Data Developer</tspan>
<tspan x="550" y="230" class="cc">. </tspan><tspan class="key">Environment</tspan>:<tspan class="cc"> ......................... </tspan><tspan class="value">VSCode, Antigravity</tspan>
<tspan x="550" y="260" class="cc">. </tspan><tspan class="key">Tools</tspan>:<tspan class="cc"> ............................ </tspan><tspan class="value">Git, Azure, AWS, Mongo</tspan>
<tspan x="550" y="290" class="cc">. </tspan><tspan class="key">Languages.Programming</tspan>:<tspan class="cc"> ................... </tspan><tspan class="value">Python, JS, SQL</tspan>
<tspan x="550" y="320" class="cc">. </tspan><tspan class="key">Languages.Real</tspan>:<tspan class="cc"> ........... </tspan><tspan class="value">English, Tamil, Hindi, Spanish</tspan>
<tspan x="550" y="350" class="cc">. </tspan><tspan class="key">Focus</tspan>:<tspan class="cc"> ............................ </tspan><tspan class="value">Full Stack, AI, Design</tspan>
<tspan x="550" y="380" class="cc">. </tspan><tspan class="key">Interests</tspan>:<tspan class="cc"> .................. </tspan><tspan class="value">Databases, AI/ML, Agentic AI</tspan>
<tspan x="550" y="410" class="cc">. </tspan><tspan class="key">Hobbies</tspan>:<tspan class="cc"> .................... </tspan><tspan class="value">Cricket, Badminton, Learning</tspan>
<tspan x="550" y="440">- Contact</tspan> -——————————————————————————————————————————————-—-
<tspan x="550" y="470" class="cc">. </tspan><tspan class="key">Timezone</tspan>:<tspan class="cc"> ................................. </tspan><a href="https://time.is/IST" target="_blank"><tspan class="value">IST (UTC+5:30)</tspan></a>
<tspan x="550" y="500" class="cc">. </tspan><tspan class="key">Email</tspan>:<tspan class="cc"> ............................. </tspan><a href="https://mail.google.com/mail/?view=cm&amp;fs=1&amp;to=pranavc0303@gmail.com" target="_blank"><tspan class="value">pranavc0303@gmail.com</tspan></a>
<tspan x="550" y="530" class="cc">. </tspan><tspan class="key">Documentation</tspan>:<tspan class="cc"> .............................. </tspan><a href="https://pcgod007.dev/" target="_blank"><tspan class="value">pcgod007.dev</tspan></a>
<tspan x="550" y="560" class="cc">. </tspan><tspan class="key">LinkedIn</tspan>:<tspan class="cc"> ....................... </tspan><a href="https://www.linkedin.com/in/pranav-chandrasekhar-b9908821a/" target="_blank"><tspan class="value">/in/pranav-chandrasekhar</tspan></a>
<tspan x="550" y="590" class="cc">. </tspan><tspan class="key">Discord</tspan>:<tspan class="cc"> ........................................ </tspan><tspan class="value">pcgod007</tspan>
<tspan x="550" y="620">- GitHub Stats</tspan> -—————————————————————————————————————————-—-
<tspan x="550" y="650" class="cc">. </tspan><tspan class="key">Repos</tspan>:<tspan class="cc" id="repo_data_dots"> ..... </tspan><tspan class="value" id="repo_data">13</tspan> {<tspan class="key">Contributed</tspan>: <tspan class="value" id="contrib_data">14</tspan>} | <tspan class="key">Stars</tspan>:<tspan class="cc" id="star_data_dots"> .............. </tspan><tspan class="value" id="star_data">0</tspan>
<tspan x="550" y="680" class="cc">. </tspan><tspan class="key">Commits</tspan>:<tspan class="cc" id="commit_data_dots"> .................... </tspan><tspan class="value" id="commit_data">191</tspan> | <tspan class="key">Followers</tspan>:<tspan class="cc" id="follower_data_dots"> ......... </tspan><tspan class="value" id="follower_data">1</tspan>
<tspan x="550" y="710" class="cc">. </tspan><tspan class="key">Lines of Code</tspan>:<tspan class="cc" id="loc_data_dots"> ...... </tspan><tspan class="value" id="loc_data">120,147</tspan> ( <tspan class="addColor" id="loc_add">147,105</tspan><tspan class="addColor">++</tspan>, <tspan id="loc_del_dots"> </tspan><tspan class="delColor" id="loc_del">26,958</tspan><tspan class="delColor">--</tspan> )
<tspan x="550" y="740">    —————————————————————————————————————————————————————-——-</tspan>
</text>
</svg>